<?xml version="1.0" ?><!DOCTYPE svg  PUBLIC '-//W3C//DTD SVG 1.1//EN'  'http://www.w3.org/Graphics/SVG/1.1/DTD/svg11.dtd'><svg enable-background="new 0 0 128 128" height="128px" id="Layer_1" version="1.1" viewBox="0 0 128 128" width="128px" xml:space="preserve" xmlns="http://www.w3.org/2000/svg" xmlns:xlink="http://www.w3.org/1999/xlink"><path d="M99.258,114.97H75.254c-1.104,0-2-0.896-2-2V80.49H55.065v32.479c0,1.104-0.896,2-2,2H29.062c-1.104,0-2-0.896-2-2V62.088  c0-0.522,0.204-1.023,0.568-1.396L62.825,24.61c0.376-0.386,0.893-0.604,1.432-0.604c0.001,0,0.002,0,0.003,0  c0.54,0,1.057,0.22,1.433,0.607l35.001,36.081c0.362,0.373,0.564,0.873,0.564,1.393v50.882  C101.258,114.074,100.362,114.97,99.258,114.97z M77.254,110.97h20.004V62.898L64.253,28.875L31.062,62.902v48.067h20.004V78.49  c0-1.104,0.896-2,2-2h22.188c1.104,0,2,0.896,2,2V110.97z"/><path d="M18.039,63.863c-0.5,0-1-0.186-1.388-0.56c-0.795-0.766-0.819-2.033-0.053-2.828l46.046-47.794  c0.375-0.39,0.893-0.61,1.433-0.612c0.591-0.003,1.059,0.215,1.438,0.602l45.94,46.991c0.772,0.79,0.758,2.056-0.031,2.828  c-0.791,0.772-2.057,0.757-2.828-0.032l-44.5-45.517L19.479,63.25C19.087,63.658,18.563,63.863,18.039,63.863z"/><path d="M36.4,44.805c-1.104,0-2-0.896-2-2V20c0-1.104,0.896-2,2-2s2,0.896,2,2v22.805C38.4,43.909,37.505,44.805,36.4,44.805z"/></svg>