<?xml version="1.0" ?><!DOCTYPE svg  PUBLIC '-//W3C//DTD SVG 1.1//EN'  'http://www.w3.org/Graphics/SVG/1.1/DTD/svg11.dtd'><svg height="512px" style="enable-background:new 0 0 512 512;" version="1.1" viewBox="0 0 512 512" width="512px" xml:space="preserve" xmlns="http://www.w3.org/2000/svg" xmlns:xlink="http://www.w3.org/1999/xlink"><g id="_x32_06-mastercard_x2C__Credit_card"><path d="M434.5,426h-357C51.819,426,31,405.182,31,379.5v-247C31,106.819,51.819,86,77.5,86h357   c25.682,0,46.5,20.819,46.5,46.5v247C481,405.182,460.182,426,434.5,426z" style="fill:#FFFFFF;"/><g><g><path d="M331,161c52.46,0,95,42.53,95,95c0,52.47-42.54,95-95,95c-30.49,0-57.631-14.36-75-36.69     c12.54-16.1,20-36.329,20-58.31c0-21.98-7.46-42.21-20-58.31C273.369,175.36,300.51,161,331,161z" style="fill:#F79F1A;"/></g><g><path d="M256,197.69c12.54,16.1,20,36.33,20,58.31c0,21.98-7.46,42.21-20,58.31     c-12.54-16.1-20-36.329-20-58.31C236,234.02,243.46,213.79,256,197.69z" style="fill:#FF5F01;"/></g><g><path d="M181,161c30.49,0,57.63,14.36,75,36.69c-12.54,16.1-20,36.33-20,58.31     c0,21.98,7.46,42.21,20,58.31C238.63,336.64,211.49,351,181,351c-52.47,0-95-42.53-95-95C86,203.53,128.53,161,181,161z" style="fill:#EA001B;"/></g></g><polygon points="255.68,254.482 255.68,258.156 256.321,258.156 256.321,254.482 257.836,254.482 257.836,253.844 254.164,253.844    254.164,254.482 255.68,254.482  "/><g><path d="M404.94,250.36c-6.549-8.704-23.879-4.073-23.879,11.101c0,15.494,17.969,19.646,23.879,11.101v3.674h6.309v-41.287    h-6.309V250.36z M396.474,270.804c-5.43,0-8.944-4.152-8.944-9.343c0-5.192,3.515-9.343,8.944-9.343    c5.272,0,8.945,4.15,8.945,9.343C405.419,266.893,401.746,270.804,396.474,270.804z"/><path d="M165.677,250.36c-2.156-2.636-5.19-4.313-9.344-4.313c-8.226,0-14.534,6.549-14.534,15.413    c0,8.945,6.309,15.414,14.534,15.414c4.154,0,7.188-1.518,9.344-4.313v3.674h6.31v-29.39h-6.31V250.36z M157.212,270.804    c-5.671,0-8.944-4.152-8.944-9.343c0-5.192,3.273-9.343,8.944-9.343c5.19,0,8.625,4.15,8.704,9.343    C165.916,266.893,162.403,270.804,157.212,270.804z"/><path d="M251.287,245.967c-8.463,0-14.534,6.311-14.534,15.414c0,16.372,18.049,19.088,26.993,11.341l-3.034-4.792    c-6.229,5.112-15.654,4.632-17.489-3.913h21.961C265.184,251.079,259.274,245.967,251.287,245.967z M243.462,258.826    c0.639-4.153,3.273-6.947,7.586-6.947c4.151,0,6.949,2.395,7.667,6.947H243.462z"/><path d="M345.604,250.36c-6.629-8.785-23.88-3.834-23.88,11.101c0,15.333,17.891,19.725,23.88,11.101v3.674h6.549v-29.39h-6.549    V250.36z M337.138,270.804c-5.43,0-8.704-4.152-8.704-9.343c0-5.192,3.274-9.343,8.704-9.343s8.944,4.15,8.944,9.343    C346.082,266.893,342.567,270.804,337.138,270.804z"/><path d="M124.39,246.048c-3.674,0-7.586,1.118-10.223,5.189c-1.917-3.272-5.19-5.189-9.743-5.189    c-3.035,0-6.069,1.118-8.464,4.313v-3.515H89.41v29.31h6.549c0-15.094-1.997-24.117,7.187-24.117    c8.146,0,6.549,8.145,6.549,24.117h6.309c0-14.613-1.997-24.117,7.187-24.117c8.146,0,6.549,7.985,6.549,24.117h6.548v-18.368    h-0.16C136.128,250.837,131.578,246.287,124.39,246.048z"/><path d="M186.042,255.151c0-4.553,9.503-3.833,14.773-0.878l2.636-5.191c-7.507-4.871-24.118-4.791-24.118,6.55    c0,11.419,18.288,6.628,18.288,11.979c0,5.031-10.781,4.631-16.53,0.639l-2.796,5.032c8.944,6.067,26.033,4.792,26.033-5.991    C204.329,255.313,186.042,260.741,186.042,255.151z"/><path d="M221.102,266.012v-13.256h10.461v-5.91h-10.461v-8.942h-6.549v8.942h-6.07v5.829h6.07v13.337    c0,14.058,13.815,11.5,18.047,8.706l-1.757-5.431C227.81,270.963,221.102,272.8,221.102,266.012z"/><path d="M278.282,250.36v-3.515h-6.551v29.31h6.551v-16.531c0-9.264,7.587-8.066,10.222-6.708l1.915-6.07    C286.747,245.25,281.157,245.408,278.282,250.36z"/><path d="M315.416,254.753l3.033-5.191c-9.262-7.267-26.111-3.274-26.111,11.98c0,15.812,17.887,19.006,26.111,11.978l-3.033-5.19    c-7.348,5.19-16.532,2.077-16.532-6.868C298.884,252.357,308.148,249.4,315.416,254.753z"/><path d="M366.926,250.36v-3.515h-6.309v29.31h6.309v-16.531c0-8.787,7.188-8.226,10.223-6.708l1.917-6.07    C377.148,245.888,370.28,244.53,366.926,250.36z"/><path d="M422.351,272.562c-0.24-0.239-0.4-0.64-0.64-0.879s-0.64-0.397-0.878-0.639c-0.399,0-0.879-0.24-1.279-0.24    c-0.238,0-0.639,0.24-1.116,0.24c-0.401,0.241-0.641,0.399-0.879,0.639c-0.399,0.239-0.639,0.64-0.639,0.879    c-0.24,0.399-0.24,0.88-0.24,1.278c0,0.239,0,0.639,0.24,1.116c0,0.24,0.239,0.641,0.639,0.88c0.238,0.239,0.4,0.399,0.879,0.639    c0.398,0.239,0.878,0.239,1.116,0.239c0.4,0,0.88,0,1.279-0.239c0.238-0.239,0.639-0.399,0.878-0.639s0.399-0.64,0.64-0.88    c0.239-0.478,0.239-0.877,0.239-1.116C422.59,273.441,422.59,272.961,422.351,272.562z"/></g><polygon points="258.396,253.844 257.279,253.844 255.999,256.639 254.722,253.844 253.604,253.844 253.604,258.156    254.244,258.156 254.244,254.881 255.521,257.678 256.398,257.678 257.518,254.881 257.518,258.156 258.396,258.156  "/></g><g id="Layer_1"/></svg>