<?xml version="1.0" encoding="UTF-8"?>
<svg xmlns="http://www.w3.org/2000/svg" xmlns:xlink="http://www.w3.org/1999/xlink" width="15px" height="15px" viewBox="0 0 15 15" version="1.1">
<g id="surface1">
<path style=" stroke:none;fill-rule:nonzero;fill:rgb(0%,0%,0%);fill-opacity:1;" d="M 2.84375 0.585938 C 2.855469 0.585938 2.867188 0.585938 2.882812 0.585938 C 2.902344 0.585938 2.921875 0.585938 2.945312 0.589844 C 2.972656 0.589844 3 0.59375 3.027344 0.597656 C 3.050781 0.597656 3.074219 0.601562 3.097656 0.605469 C 3.121094 0.609375 3.148438 0.613281 3.175781 0.621094 C 3.195312 0.625 3.21875 0.628906 3.246094 0.636719 L 3.253906 0.640625 C 3.277344 0.644531 3.296875 0.648438 3.320312 0.65625 C 3.339844 0.664062 3.359375 0.671875 3.378906 0.679688 L 3.394531 0.683594 L 3.414062 0.691406 C 3.429688 0.695312 3.445312 0.703125 3.460938 0.707031 C 3.480469 0.714844 3.5 0.726562 3.519531 0.734375 L 3.535156 0.742188 L 3.5625 0.753906 C 3.574219 0.761719 3.585938 0.765625 3.597656 0.773438 C 3.617188 0.785156 3.640625 0.796875 3.660156 0.808594 L 3.675781 0.820312 L 3.707031 0.835938 C 3.714844 0.84375 3.722656 0.847656 3.730469 0.851562 C 3.753906 0.867188 3.78125 0.886719 3.804688 0.90625 L 3.8125 0.914062 C 3.824219 0.921875 3.835938 0.929688 3.84375 0.9375 L 3.855469 0.945312 C 3.898438 0.976562 3.9375 1.015625 3.972656 1.050781 L 5.3125 2.390625 C 5.347656 2.425781 5.382812 2.464844 5.417969 2.503906 L 5.425781 2.515625 C 5.433594 2.527344 5.441406 2.539062 5.449219 2.550781 L 5.457031 2.5625 C 5.476562 2.585938 5.496094 2.609375 5.511719 2.632812 C 5.515625 2.640625 5.519531 2.648438 5.527344 2.65625 L 5.542969 2.6875 L 5.554688 2.703125 C 5.566406 2.722656 5.578125 2.742188 5.589844 2.765625 C 5.597656 2.777344 5.601562 2.789062 5.605469 2.800781 L 5.621094 2.828125 L 5.628906 2.84375 C 5.636719 2.863281 5.644531 2.882812 5.65625 2.902344 C 5.660156 2.917969 5.667969 2.933594 5.671875 2.949219 L 5.679688 2.96875 L 5.683594 2.980469 C 5.691406 3.003906 5.699219 3.023438 5.707031 3.042969 C 5.710938 3.0625 5.71875 3.085938 5.722656 3.105469 L 5.726562 3.121094 C 5.730469 3.144531 5.738281 3.164062 5.742188 3.1875 C 5.75 3.214844 5.753906 3.238281 5.757812 3.265625 C 5.761719 3.289062 5.765625 3.3125 5.765625 3.335938 C 5.769531 3.363281 5.773438 3.390625 5.773438 3.417969 C 5.773438 3.441406 5.777344 3.460938 5.777344 3.480469 C 5.777344 3.511719 5.777344 3.539062 5.777344 3.570312 C 5.777344 3.589844 5.773438 3.609375 5.773438 3.628906 C 5.773438 3.660156 5.769531 3.691406 5.765625 3.722656 C 5.761719 3.738281 5.761719 3.757812 5.757812 3.777344 C 5.753906 3.808594 5.746094 3.839844 5.738281 3.871094 C 5.734375 3.886719 5.734375 3.898438 5.726562 3.917969 C 5.71875 3.953125 5.710938 3.984375 5.699219 4.015625 C 5.699219 4.023438 5.695312 4.03125 5.691406 4.042969 L 5.683594 4.058594 C 5.671875 4.09375 5.660156 4.125 5.648438 4.15625 L 5.640625 4.171875 L 5.632812 4.195312 C 5.613281 4.226562 5.597656 4.261719 5.578125 4.296875 L 5.566406 4.324219 C 5.542969 4.363281 5.523438 4.394531 5.503906 4.421875 C 5.5 4.425781 5.492188 4.433594 5.488281 4.441406 C 5.457031 4.484375 5.433594 4.519531 5.40625 4.550781 C 5.371094 4.59375 5.339844 4.628906 5.3125 4.65625 L 4.40625 5.5625 C 4.097656 5.871094 4.097656 6.371094 4.40625 6.679688 L 8.320312 10.59375 C 8.472656 10.742188 8.667969 10.824219 8.878906 10.824219 C 9.089844 10.824219 9.289062 10.742188 9.4375 10.59375 L 10.34375 9.6875 C 10.371094 9.660156 10.40625 9.628906 10.449219 9.59375 C 10.480469 9.566406 10.515625 9.542969 10.558594 9.511719 C 10.566406 9.507812 10.570312 9.5 10.578125 9.496094 C 10.605469 9.476562 10.636719 9.457031 10.679688 9.433594 L 10.703125 9.417969 C 10.738281 9.402344 10.773438 9.382812 10.808594 9.367188 L 10.828125 9.359375 L 10.839844 9.351562 C 10.875 9.339844 10.90625 9.324219 10.941406 9.3125 L 10.960938 9.308594 C 10.96875 9.304688 10.976562 9.300781 10.984375 9.300781 C 11.015625 9.289062 11.046875 9.28125 11.085938 9.269531 C 11.101562 9.265625 11.113281 9.261719 11.128906 9.261719 C 11.160156 9.253906 11.191406 9.246094 11.226562 9.242188 C 11.242188 9.238281 11.261719 9.238281 11.277344 9.234375 C 11.308594 9.230469 11.339844 9.226562 11.371094 9.226562 C 11.390625 9.226562 11.410156 9.222656 11.429688 9.222656 C 11.449219 9.222656 11.464844 9.222656 11.484375 9.222656 C 11.496094 9.222656 11.507812 9.222656 11.519531 9.222656 C 11.539062 9.222656 11.5625 9.226562 11.582031 9.226562 C 11.609375 9.226562 11.636719 9.230469 11.667969 9.234375 C 11.6875 9.234375 11.710938 9.238281 11.734375 9.242188 C 11.761719 9.246094 11.785156 9.25 11.8125 9.257812 C 11.835938 9.261719 11.855469 9.265625 11.882812 9.273438 L 11.890625 9.277344 C 11.914062 9.28125 11.9375 9.289062 11.957031 9.292969 C 11.976562 9.300781 11.996094 9.308594 12.015625 9.316406 L 12.03125 9.320312 L 12.050781 9.328125 C 12.066406 9.332031 12.082031 9.339844 12.097656 9.34375 C 12.117188 9.351562 12.136719 9.363281 12.15625 9.371094 L 12.171875 9.378906 L 12.199219 9.394531 C 12.210938 9.398438 12.222656 9.402344 12.234375 9.410156 C 12.257812 9.421875 12.277344 9.433594 12.296875 9.445312 L 12.3125 9.457031 L 12.34375 9.472656 C 12.351562 9.480469 12.359375 9.484375 12.367188 9.488281 C 12.394531 9.503906 12.417969 9.523438 12.441406 9.542969 L 12.449219 9.550781 C 12.460938 9.558594 12.472656 9.566406 12.484375 9.574219 L 12.492188 9.582031 C 12.535156 9.613281 12.574219 9.652344 12.609375 9.6875 L 13.949219 11.027344 C 13.984375 11.0625 14.023438 11.101562 14.054688 11.140625 L 14.0625 11.15625 C 14.070312 11.164062 14.078125 11.175781 14.089844 11.1875 L 14.097656 11.199219 C 14.113281 11.222656 14.132812 11.246094 14.148438 11.269531 C 14.15625 11.277344 14.160156 11.285156 14.164062 11.292969 L 14.183594 11.324219 L 14.191406 11.339844 C 14.203125 11.363281 14.214844 11.382812 14.226562 11.402344 C 14.234375 11.414062 14.238281 11.425781 14.246094 11.4375 L 14.257812 11.464844 L 14.265625 11.480469 C 14.273438 11.5 14.285156 11.519531 14.292969 11.539062 C 14.300781 11.554688 14.304688 11.570312 14.308594 11.585938 L 14.316406 11.605469 L 14.320312 11.621094 C 14.328125 11.640625 14.335938 11.660156 14.34375 11.679688 C 14.351562 11.699219 14.355469 11.722656 14.359375 11.742188 L 14.363281 11.757812 C 14.371094 11.78125 14.375 11.800781 14.378906 11.824219 C 14.386719 11.851562 14.390625 11.875 14.394531 11.902344 C 14.398438 11.925781 14.402344 11.949219 14.402344 11.972656 C 14.40625 12 14.410156 12.027344 14.410156 12.054688 C 14.414062 12.074219 14.414062 12.097656 14.414062 12.117188 C 14.414062 12.148438 14.414062 12.175781 14.414062 12.207031 C 14.414062 12.226562 14.414062 12.246094 14.410156 12.265625 C 14.410156 12.296875 14.40625 12.328125 14.402344 12.355469 C 14.402344 12.375 14.398438 12.394531 14.394531 12.410156 C 14.390625 12.445312 14.382812 12.476562 14.378906 12.507812 C 14.375 12.519531 14.371094 12.535156 14.367188 12.554688 C 14.355469 12.589844 14.347656 12.621094 14.339844 12.652344 C 14.335938 12.660156 14.332031 12.667969 14.328125 12.675781 L 14.324219 12.695312 C 14.3125 12.730469 14.300781 12.761719 14.285156 12.792969 L 14.277344 12.808594 L 14.269531 12.828125 C 14.253906 12.863281 14.238281 12.898438 14.21875 12.933594 L 14.203125 12.957031 C 14.179688 13 14.160156 13.03125 14.144531 13.054688 C 14.136719 13.0625 14.132812 13.070312 14.125 13.078125 C 14.097656 13.121094 14.070312 13.15625 14.046875 13.1875 C 14.007812 13.230469 13.976562 13.261719 13.949219 13.292969 L 13.941406 13.300781 C 13.285156 13.988281 12.296875 14.367188 11.152344 14.367188 C 9.023438 14.367188 6.574219 13.082031 4.253906 10.742188 C 1.894531 8.40625 0.605469 5.933594 0.628906 3.792969 C 0.640625 2.671875 1.019531 1.703125 1.699219 1.058594 L 1.707031 1.050781 C 1.734375 1.023438 1.769531 0.992188 1.8125 0.953125 C 1.84375 0.929688 1.878906 0.902344 1.921875 0.875 C 1.925781 0.867188 1.933594 0.863281 1.941406 0.859375 C 1.96875 0.839844 2 0.820312 2.042969 0.796875 L 2.066406 0.78125 C 2.101562 0.761719 2.136719 0.746094 2.171875 0.730469 L 2.191406 0.71875 L 2.203125 0.714844 C 2.238281 0.699219 2.269531 0.6875 2.304688 0.675781 L 2.324219 0.671875 C 2.332031 0.667969 2.339844 0.664062 2.347656 0.660156 C 2.378906 0.652344 2.410156 0.640625 2.449219 0.632812 C 2.464844 0.628906 2.476562 0.625 2.492188 0.621094 C 2.523438 0.617188 2.554688 0.609375 2.589844 0.605469 C 2.605469 0.601562 2.625 0.597656 2.640625 0.597656 C 2.671875 0.59375 2.703125 0.589844 2.734375 0.589844 C 2.753906 0.585938 2.773438 0.585938 2.792969 0.585938 C 2.808594 0.585938 2.828125 0.585938 2.84375 0.585938 M 2.84375 0.09375 C 2.824219 0.09375 2.800781 0.09375 2.777344 0.09375 C 2.753906 0.09375 2.726562 0.0976562 2.699219 0.0976562 C 2.660156 0.101562 2.621094 0.105469 2.582031 0.109375 C 2.558594 0.113281 2.535156 0.113281 2.511719 0.117188 C 2.46875 0.125 2.429688 0.132812 2.386719 0.140625 C 2.367188 0.144531 2.34375 0.152344 2.324219 0.15625 C 2.28125 0.167969 2.238281 0.179688 2.195312 0.191406 C 2.175781 0.199219 2.160156 0.207031 2.140625 0.210938 C 2.097656 0.226562 2.054688 0.242188 2.011719 0.261719 C 1.996094 0.269531 1.980469 0.277344 1.964844 0.285156 C 1.917969 0.304688 1.875 0.324219 1.832031 0.347656 C 1.820312 0.355469 1.808594 0.363281 1.796875 0.371094 C 1.75 0.398438 1.703125 0.425781 1.660156 0.453125 C 1.652344 0.460938 1.644531 0.464844 1.636719 0.46875 C 1.589844 0.503906 1.542969 0.539062 1.496094 0.578125 C 1.449219 0.617188 1.402344 0.65625 1.359375 0.703125 C -0.496094 2.46875 -0.664062 6.558594 3.90625 11.09375 C 6.613281 13.824219 9.164062 14.863281 11.152344 14.863281 C 12.496094 14.863281 13.585938 14.390625 14.296875 13.640625 C 14.34375 13.597656 14.382812 13.550781 14.421875 13.503906 C 14.460938 13.457031 14.496094 13.410156 14.53125 13.363281 C 14.535156 13.355469 14.539062 13.347656 14.546875 13.339844 C 14.574219 13.296875 14.601562 13.25 14.628906 13.203125 C 14.636719 13.191406 14.644531 13.179688 14.652344 13.167969 C 14.675781 13.125 14.695312 13.082031 14.714844 13.035156 C 14.722656 13.019531 14.730469 13.003906 14.738281 12.988281 C 14.757812 12.945312 14.773438 12.902344 14.789062 12.859375 C 14.792969 12.839844 14.800781 12.824219 14.808594 12.804688 C 14.820312 12.761719 14.832031 12.71875 14.84375 12.675781 C 14.847656 12.65625 14.851562 12.632812 14.859375 12.613281 C 14.867188 12.574219 14.875 12.53125 14.882812 12.488281 C 14.886719 12.464844 14.886719 12.441406 14.890625 12.417969 C 14.894531 12.378906 14.898438 12.339844 14.902344 12.300781 C 14.902344 12.273438 14.90625 12.246094 14.90625 12.222656 C 14.90625 12.183594 14.90625 12.144531 14.90625 12.105469 C 14.90625 12.078125 14.90625 12.050781 14.902344 12.023438 C 14.898438 11.988281 14.898438 11.949219 14.894531 11.914062 C 14.890625 11.886719 14.886719 11.855469 14.878906 11.828125 C 14.875 11.792969 14.871094 11.757812 14.863281 11.722656 C 14.855469 11.691406 14.847656 11.660156 14.839844 11.632812 C 14.832031 11.597656 14.824219 11.566406 14.8125 11.535156 C 14.804688 11.503906 14.792969 11.472656 14.78125 11.4375 C 14.769531 11.410156 14.757812 11.378906 14.746094 11.347656 C 14.734375 11.316406 14.71875 11.285156 14.703125 11.25 C 14.6875 11.222656 14.675781 11.195312 14.660156 11.171875 C 14.644531 11.136719 14.621094 11.101562 14.601562 11.070312 C 14.585938 11.046875 14.574219 11.019531 14.558594 10.996094 C 14.535156 10.960938 14.507812 10.925781 14.480469 10.890625 C 14.464844 10.871094 14.453125 10.851562 14.4375 10.832031 C 14.394531 10.78125 14.347656 10.726562 14.296875 10.679688 L 12.957031 9.339844 C 12.910156 9.289062 12.859375 9.242188 12.804688 9.199219 C 12.785156 9.183594 12.765625 9.171875 12.75 9.15625 C 12.710938 9.132812 12.675781 9.101562 12.640625 9.078125 C 12.617188 9.0625 12.59375 9.050781 12.570312 9.035156 C 12.535156 9.015625 12.5 8.992188 12.46875 8.976562 C 12.441406 8.960938 12.414062 8.949219 12.386719 8.9375 C 12.355469 8.921875 12.320312 8.90625 12.289062 8.890625 C 12.257812 8.878906 12.226562 8.867188 12.199219 8.855469 C 12.167969 8.847656 12.136719 8.835938 12.101562 8.824219 C 12.070312 8.8125 12.039062 8.804688 12.003906 8.796875 C 11.976562 8.789062 11.945312 8.78125 11.914062 8.773438 C 11.878906 8.769531 11.84375 8.761719 11.808594 8.757812 C 11.78125 8.753906 11.753906 8.746094 11.722656 8.746094 C 11.6875 8.738281 11.648438 8.738281 11.613281 8.734375 C 11.585938 8.734375 11.558594 8.730469 11.53125 8.730469 C 11.515625 8.730469 11.5 8.730469 11.484375 8.730469 C 11.460938 8.730469 11.4375 8.730469 11.414062 8.730469 C 11.390625 8.730469 11.363281 8.734375 11.339844 8.734375 C 11.296875 8.738281 11.257812 8.742188 11.21875 8.746094 C 11.195312 8.75 11.171875 8.753906 11.148438 8.757812 C 11.105469 8.761719 11.066406 8.769531 11.023438 8.78125 C 11.003906 8.785156 10.980469 8.789062 10.960938 8.792969 C 10.917969 8.804688 10.875 8.816406 10.832031 8.832031 C 10.816406 8.835938 10.796875 8.84375 10.777344 8.851562 C 10.734375 8.867188 10.691406 8.882812 10.648438 8.898438 C 10.632812 8.90625 10.617188 8.914062 10.601562 8.921875 C 10.558594 8.941406 10.511719 8.964844 10.46875 8.988281 C 10.457031 8.992188 10.445312 9 10.433594 9.007812 C 10.386719 9.035156 10.339844 9.0625 10.296875 9.09375 C 10.289062 9.097656 10.28125 9.101562 10.277344 9.109375 C 10.226562 9.140625 10.179688 9.175781 10.132812 9.214844 C 10.085938 9.253906 10.039062 9.296875 9.996094 9.339844 L 9.089844 10.246094 C 9.03125 10.304688 8.957031 10.332031 8.878906 10.332031 C 8.804688 10.332031 8.726562 10.304688 8.671875 10.246094 L 4.753906 6.328125 C 4.640625 6.214844 4.640625 6.023438 4.753906 5.910156 L 5.660156 5.003906 C 5.703125 4.957031 5.746094 4.914062 5.785156 4.863281 C 5.824219 4.820312 5.859375 4.773438 5.890625 4.726562 C 5.898438 4.71875 5.902344 4.710938 5.90625 4.703125 C 5.9375 4.660156 5.964844 4.613281 5.992188 4.566406 C 6 4.554688 6.007812 4.542969 6.011719 4.53125 C 6.035156 4.488281 6.058594 4.441406 6.078125 4.398438 C 6.085938 4.382812 6.09375 4.367188 6.101562 4.351562 C 6.117188 4.308594 6.136719 4.265625 6.148438 4.222656 C 6.15625 4.203125 6.164062 4.183594 6.167969 4.167969 C 6.183594 4.125 6.195312 4.082031 6.207031 4.039062 C 6.210938 4.019531 6.214844 3.996094 6.222656 3.976562 C 6.230469 3.933594 6.238281 3.894531 6.242188 3.851562 C 6.246094 3.828125 6.25 3.804688 6.253906 3.78125 C 6.257812 3.742188 6.261719 3.703125 6.265625 3.660156 C 6.265625 3.636719 6.269531 3.609375 6.269531 3.585938 C 6.269531 3.546875 6.269531 3.507812 6.269531 3.46875 C 6.269531 3.441406 6.265625 3.414062 6.265625 3.386719 C 6.261719 3.351562 6.261719 3.3125 6.257812 3.277344 C 6.253906 3.246094 6.246094 3.21875 6.242188 3.1875 C 6.238281 3.152344 6.230469 3.121094 6.226562 3.085938 C 6.21875 3.054688 6.210938 3.023438 6.203125 2.992188 C 6.195312 2.960938 6.1875 2.929688 6.175781 2.898438 C 6.167969 2.863281 6.15625 2.832031 6.144531 2.800781 C 6.132812 2.769531 6.121094 2.742188 6.109375 2.710938 C 6.09375 2.679688 6.078125 2.644531 6.0625 2.613281 C 6.050781 2.585938 6.039062 2.558594 6.023438 2.53125 C 6.007812 2.496094 5.984375 2.464844 5.964844 2.429688 C 5.949219 2.40625 5.9375 2.382812 5.921875 2.359375 C 5.898438 2.324219 5.871094 2.285156 5.84375 2.25 C 5.828125 2.234375 5.816406 2.214844 5.800781 2.195312 C 5.757812 2.140625 5.710938 2.089844 5.660156 2.039062 L 4.320312 0.703125 C 4.273438 0.652344 4.21875 0.605469 4.167969 0.5625 C 4.148438 0.546875 4.128906 0.535156 4.109375 0.519531 C 4.074219 0.492188 4.039062 0.464844 4.003906 0.441406 C 3.980469 0.425781 3.953125 0.414062 3.929688 0.398438 C 3.898438 0.378906 3.863281 0.355469 3.828125 0.339844 C 3.804688 0.324219 3.777344 0.3125 3.75 0.296875 C 3.714844 0.28125 3.683594 0.265625 3.648438 0.253906 C 3.621094 0.242188 3.589844 0.230469 3.5625 0.21875 C 3.527344 0.207031 3.496094 0.195312 3.464844 0.1875 C 3.433594 0.175781 3.402344 0.167969 3.367188 0.160156 C 3.335938 0.152344 3.308594 0.144531 3.277344 0.136719 C 3.242188 0.128906 3.207031 0.125 3.171875 0.121094 C 3.144531 0.113281 3.113281 0.109375 3.085938 0.105469 C 3.046875 0.101562 3.011719 0.0976562 2.976562 0.0976562 C 2.949219 0.09375 2.921875 0.09375 2.894531 0.09375 C 2.878906 0.09375 2.863281 0.09375 2.84375 0.09375 Z M 2.84375 0.09375 "/>
</g>
</svg>
