<?xml version="1.0" ?><!DOCTYPE svg  PUBLIC '-//W3C//DTD SVG 1.1//EN'  'http://www.w3.org/Graphics/SVG/1.1/DTD/svg11.dtd'><svg viewBox="0 0 900 575" xmlns="http://www.w3.org/2000/svg" xmlns:xlink="http://www.w3.org/1999/xlink"><style>:root>svg{display:none}:root>svg:target{display:block}</style><svg viewBox="0 0 128 128" id="cart" xmlns="http://www.w3.org/2000/svg"><path d="M86 59h33v8H86v8h22.2l-8.5 44H28.3l-8.5-44H42v-8H9v-9h33v-8H1v25h10.7l10 52h84.6l10-52H127V51H86z"/><path d="M52 75h24V1H52v74zm8-66h8v58h-8V9z"/></svg><svg viewBox="0 0 64 64" id="carts" xmlns="http://www.w3.org/2000/svg"><defs><style>.bcls-1{fill:none;stroke:#000;stroke-linecap:round;stroke-linejoin:round;stroke-width:2px}</style></defs><g data-name="Layer 30" id="bLayer_30"><path class="bcls-1" d="M12.52 13.59l50.48-.2-7.1 28H20.23l-8.86-32H1.25"/><circle class="bcls-1" cx="23.83" cy="52.17" r="3.92"/><circle class="bcls-1" cx="53.1" cy="52.17" r="3.92"/><path class="bcls-1" d="M17.65 32.1h40.64M15 22.56h45.7M24.15 13.54v27.87M15.83 13.54v12M32.41 13.54v27.87M40.66 13.54v27.87M48.92 13.54v27.87M57.18 13.54v22.93M20.23 41.41v4.29a2.55 2.55 0 002.55 2.55h30.46"/></g></svg><svg viewBox="0 0 384 512" id="dot" xmlns="http://www.w3.org/2000/svg"><path d="M192 0C85.97 0 0 85.97 0 192c0 77.41 26.97 99.03 172.3 309.7 9.531 13.77 29.91 13.77 39.44 0C357 291 384 269.4 384 192 384 85.97 298 0 192 0zm0 271.1c-44.13 0-80-35.88-80-80s35.9-80 80-80 80 35.88 80 80-35.9 80-80 80z"/></svg><svg viewBox="0 0 48 48" id="email" xmlns="http://www.w3.org/2000/svg"><path d="M44 40H4c-2.206 0-4-1.794-4-4V12c0-2.206 1.794-4 4-4h40c2.206 0 4 1.794 4 4v24c0 2.206-1.794 4-4 4zM4 10c-1.103 0-2 .897-2 2v24c0 1.103.897 2 2 2h40c1.103 0 2-.897 2-2V12c0-1.103-.897-2-2-2H4z"/><path d="M24 29.191L6.457 17.84a1 1 0 011.086-1.68L24 26.809 40.457 16.16a1 1 0 011.086 1.68L24 29.191zM6.001 34a1 1 0 01-.556-1.832l9-6a1 1 0 111.11 1.664l-9 6a1.004 1.004 0 01-.554.168zM41.999 34c-.19 0-.383-.055-.554-.168l-9-6a1 1 0 111.11-1.664l9 6A1 1 0 0141.999 34z"/></svg><svg viewBox="0 0 256 256" id="facebook" xmlns="http://www.w3.org/2000/svg"><g transform="translate(1.964 1.964) scale(2.8008)" stroke-width="0" stroke-miterlimit="10" fill="none" style="stroke:none;stroke-width:0;stroke-dasharray:none;stroke-linecap:butt;stroke-linejoin:miter;stroke-miterlimit:10;fill:none;fill-rule:nonzero;opacity:1"><circle cx="45" cy="45" r="45" fill="#3c5a99"/><path d="M38.633 37.184v9.136h-10.64v12.388h10.64v30.836c2.081.294 4.205.456 6.367.456 2.159 0 4.28-.162 6.359-.456V58.708h10.613l1.589-12.388H51.359v-7.909c0-3.587.991-6.031 6.107-6.031l6.525-.003v-11.08c-1.128-.151-5.002-.488-9.508-.488-9.409.001-15.85 5.773-15.85 16.375z" fill="#fff"/></g></svg><svg viewBox="0 0 128 128" id="home" xmlns="http://www.w3.org/2000/svg"><path d="M99.258 114.97H75.254a2 2 0 01-2-2V80.49H55.065v32.479a2 2 0 01-2 2H29.062a2 2 0 01-2-2V62.088c0-.522.204-1.023.568-1.396L62.825 24.61a2 2 0 011.432-.604h.003a2 2 0 011.433.607l35.001 36.081a2 2 0 01.564 1.393v50.882a2 2 0 01-2 2.001zm-22.004-4h20.004V62.898L64.253 28.875 31.062 62.902v48.067h20.004V78.49a2 2 0 012-2h22.188a2 2 0 012 2v32.48z"/><path d="M18.039 63.863a2 2 0 01-1.441-3.388l46.046-47.794c.375-.39.893-.61 1.433-.612a1.916 1.916 0 011.438.602l45.94 46.991a2 2 0 01-2.859 2.796l-44.5-45.517L19.479 63.25a1.991 1.991 0 01-1.44.613z"/><path d="M36.4 44.805a2 2 0 01-2-2V20a2 2 0 014 0v22.805a2 2 0 01-2 2z"/></svg><svg viewBox="0 0 512 512" id="inst" xmlns="http://www.w3.org/2000/svg"><linearGradient gradientUnits="userSpaceOnUse" id="ga" x1="65.904" x2="446.357" y1="444.477" y2="64.023"><stop offset="0" stop-color="#ffc107"/><stop offset=".221" stop-color="#f98d1c"/><stop offset=".514" stop-color="#f1423b"/><stop offset=".833" stop-color="#b93088"/><stop offset=".994" stop-color="#9c27b0"/></linearGradient><path d="M343.193 22H168.32C87.854 22 23 86.863 23 166.958v174.079C23 421.137 87.854 487 168.32 487h174.873C423.66 487 490 421.137 490 341.037V166.958C490 86.863 423.66 22 343.193 22zM446 341.037C446 397.025 399.438 443 343.193 443H168.32C112.071 443 66 397.025 66 341.037V166.958C66 110.973 112.071 65 168.32 65h174.873C399.438 65 446 110.973 446 166.958v174.079z" fill="url(#ga)"/><linearGradient gradientUnits="userSpaceOnUse" id="gb" x1="173.511" x2="338.003" y1="336.245" y2="171.753"><stop offset="0" stop-color="#ffc107"/><stop offset=".221" stop-color="#f98d1c"/><stop offset=".514" stop-color="#f1423b"/><stop offset=".833" stop-color="#b93088"/><stop offset=".994" stop-color="#9c27b0"/></linearGradient><path d="M255.756 137.947c-64.382 0-116.581 51.961-116.581 116.055 0 64.085 52.199 116.045 116.581 116.045 64.383 0 116.58-51.96 116.58-116.045 0-64.094-52.197-116.055-116.58-116.055zm0 188.584c-40.164 0-72.86-32.551-72.86-72.529 0-40.016 32.696-72.534 72.86-72.534 40.162 0 72.861 32.519 72.861 72.534 0 39.978-32.699 72.529-72.861 72.529z" fill="url(#gb)"/><linearGradient gradientUnits="userSpaceOnUse" id="gc" x1="370.118" x2="392.037" y1="140.203" y2="118.284"><stop offset="0" stop-color="#ffc107"/><stop offset=".221" stop-color="#f98d1c"/><stop offset=".514" stop-color="#f1423b"/><stop offset=".833" stop-color="#b93088"/><stop offset=".994" stop-color="#9c27b0"/></linearGradient><path d="M381.08 113.779c-8.581 0-15.538 6.924-15.538 15.463 0 8.54 6.957 15.467 15.538 15.467 8.573 0 15.532-6.927 15.532-15.467 0-8.539-6.959-15.463-15.532-15.463z" fill="url(#gc)"/></svg><svg viewBox="0 0 512 512" id="mastercard" xmlns="http://www.w3.org/2000/svg"><path d="M434.5 426h-357C51.819 426 31 405.182 31 379.5v-247C31 106.819 51.819 86 77.5 86h357c25.682 0 46.5 20.819 46.5 46.5v247c0 25.682-20.818 46.5-46.5 46.5z" fill="#fff"/><path d="M331 161c52.46 0 95 42.53 95 95s-42.54 95-95 95c-30.49 0-57.631-14.36-75-36.69 12.54-16.1 20-36.329 20-58.31 0-21.98-7.46-42.21-20-58.31 17.369-22.33 44.51-36.69 75-36.69z" fill="#f79f1a"/><path d="M256 197.69c12.54 16.1 20 36.33 20 58.31 0 21.98-7.46 42.21-20 58.31-12.54-16.1-20-36.329-20-58.31 0-21.98 7.46-42.21 20-58.31z" fill="#ff5f01"/><path d="M181 161c30.49 0 57.63 14.36 75 36.69-12.54 16.1-20 36.33-20 58.31 0 21.98 7.46 42.21 20 58.31-17.37 22.33-44.51 36.69-75 36.69-52.47 0-95-42.53-95-95s42.53-95 95-95z" fill="#ea001b"/><path d="M255.68 254.482v3.674h.641v-3.674h1.515v-.638h-3.672v.638h1.516z"/><g><path d="M404.94 250.36c-6.549-8.704-23.879-4.073-23.879 11.101 0 15.494 17.969 19.646 23.879 11.101v3.674h6.309v-41.287h-6.309v15.411zm-8.466 20.444c-5.43 0-8.944-4.152-8.944-9.343 0-5.192 3.515-9.343 8.944-9.343 5.272 0 8.945 4.15 8.945 9.343 0 5.432-3.673 9.343-8.945 9.343zM165.677 250.36c-2.156-2.636-5.19-4.313-9.344-4.313-8.226 0-14.534 6.549-14.534 15.413 0 8.945 6.309 15.414 14.534 15.414 4.154 0 7.188-1.518 9.344-4.313v3.674h6.31v-29.39h-6.31v3.515zm-8.465 20.444c-5.671 0-8.944-4.152-8.944-9.343 0-5.192 3.273-9.343 8.944-9.343 5.19 0 8.625 4.15 8.704 9.343 0 5.432-3.513 9.343-8.704 9.343zM251.287 245.967c-8.463 0-14.534 6.311-14.534 15.414 0 16.372 18.049 19.088 26.993 11.341l-3.034-4.792c-6.229 5.112-15.654 4.632-17.489-3.913h21.961c0-12.938-5.91-18.05-13.897-18.05zm-7.825 12.859c.639-4.153 3.273-6.947 7.586-6.947 4.151 0 6.949 2.395 7.667 6.947h-15.253zM345.604 250.36c-6.629-8.785-23.88-3.834-23.88 11.101 0 15.333 17.891 19.725 23.88 11.101v3.674h6.549v-29.39h-6.549v3.514zm-8.466 20.444c-5.43 0-8.704-4.152-8.704-9.343 0-5.192 3.274-9.343 8.704-9.343s8.944 4.15 8.944 9.343c0 5.432-3.515 9.343-8.944 9.343zM124.39 246.048c-3.674 0-7.586 1.118-10.223 5.189-1.917-3.272-5.19-5.189-9.743-5.189-3.035 0-6.069 1.118-8.464 4.313v-3.515h-6.55v29.31h6.549c0-15.094-1.997-24.117 7.187-24.117 8.146 0 6.549 8.145 6.549 24.117h6.309c0-14.613-1.997-24.117 7.187-24.117 8.146 0 6.549 7.985 6.549 24.117h6.548v-18.368h-.16c0-6.951-4.55-11.501-11.738-11.74zM186.042 255.151c0-4.553 9.503-3.833 14.773-.878l2.636-5.191c-7.507-4.871-24.118-4.791-24.118 6.55 0 11.419 18.288 6.628 18.288 11.979 0 5.031-10.781 4.631-16.53.639l-2.796 5.032c8.944 6.067 26.033 4.792 26.033-5.991.001-11.978-18.286-6.55-18.286-12.14zM221.102 266.012v-13.256h10.461v-5.91h-10.461v-8.942h-6.549v8.942h-6.07v5.829h6.07v13.337c0 14.058 13.815 11.5 18.047 8.706l-1.757-5.431c-3.033 1.676-9.741 3.513-9.741-3.275zM278.282 250.36v-3.515h-6.551v29.31h6.551v-16.531c0-9.264 7.587-8.066 10.222-6.708l1.915-6.07c-3.672-1.596-9.262-1.438-12.137 3.514zM315.416 254.753l3.033-5.191c-9.262-7.267-26.111-3.274-26.111 11.98 0 15.812 17.887 19.006 26.111 11.978l-3.033-5.19c-7.348 5.19-16.532 2.077-16.532-6.868 0-9.105 9.264-12.062 16.532-6.709zM366.926 250.36v-3.515h-6.309v29.31h6.309v-16.531c0-8.787 7.188-8.226 10.223-6.708l1.917-6.07c-1.918-.958-8.786-2.316-12.14 3.514zM422.351 272.562c-.24-.239-.4-.64-.64-.879s-.64-.397-.878-.639c-.399 0-.879-.24-1.279-.24-.238 0-.639.24-1.116.24-.401.241-.641.399-.879.639-.399.239-.639.64-.639.879-.24.399-.24.88-.24 1.278 0 .239 0 .639.24 1.116 0 .24.239.641.639.88.238.239.4.399.879.639.398.239.878.239 1.116.239.4 0 .88 0 1.279-.239.238-.239.639-.399.878-.639s.399-.64.64-.88c.239-.478.239-.877.239-1.116 0-.399 0-.879-.239-1.278z"/></g><path d="M258.396 253.844h-1.117l-1.28 2.795-1.277-2.795h-1.118v4.312h.64v-3.275l1.277 2.797h.877l1.12-2.797v3.275h.878z"/></svg><svg viewBox="0 0 15 15" id="phone" xmlns="http://www.w3.org/2000/svg"><path d="M2.844.586h.039c.02 0 .039 0 .062.004.028 0 .055.004.082.008a.43.43 0 01.07.007c.024.004.051.008.079.016.02.004.043.008.07.016l.008.004a.409.409 0 01.125.039l.016.004.02.007c.015.004.03.012.046.016.02.008.039.02.059.027l.015.008.027.012c.012.008.024.012.036.02.02.011.043.023.062.035l.016.011.031.016a.902.902 0 01.098.07l.007.008c.012.008.024.016.032.023l.011.008c.043.032.083.07.118.106l1.34 1.34c.035.035.07.074.105.113l.008.012.023.035.008.011c.02.024.04.047.055.07a.082.082 0 00.015.024l.016.031.012.016.035.063c.008.011.012.023.015.035l.016.027.008.016c.008.02.016.039.027.058.004.016.012.032.016.047l.008.02.004.011c.007.024.015.043.023.063.004.02.012.043.016.062l.004.016c.003.024.011.043.015.067.008.027.012.05.016.078a.43.43 0 01.008.07c.004.027.007.055.007.082 0 .023.004.043.004.062v.09c0 .02-.004.04-.004.059 0 .031-.003.062-.007.094-.004.015-.004.035-.008.054a.8.8 0 01-.02.094c-.004.016-.004.027-.011.047a.713.713 0 01-.028.098c0 .007-.004.015-.008.027l-.007.016-.036.097-.007.016-.008.023c-.02.032-.035.067-.055.102l-.012.027a1.472 1.472 0 01-.078.117c-.031.043-.054.079-.082.11a1.45 1.45 0 01-.093.105l-.907.907a.79.79 0 000 1.117l3.914 3.914a.793.793 0 001.117 0l.907-.906a1.45 1.45 0 01.105-.094c.031-.028.067-.051.11-.082.007-.004.011-.012.02-.016a.967.967 0 01.1-.062l.024-.016c.035-.016.07-.035.106-.05l.02-.009.01-.007c.036-.012.067-.028.102-.04l.02-.003c.008-.004.016-.008.023-.008.032-.012.063-.02.102-.031.016-.004.027-.008.043-.008a.72.72 0 01.098-.02c.015-.004.035-.004.05-.008.032-.004.063-.007.094-.007.02 0 .04-.004.059-.004h.09c.02 0 .043.004.062.004.027 0 .055.003.086.007.02 0 .043.004.066.008.028.004.051.008.079.016a.582.582 0 01.07.015l.008.004c.023.004.046.012.066.016l.059.023.015.004.02.008c.015.004.031.012.047.016.02.008.039.02.058.027l.016.008.027.016c.012.003.024.007.035.015.024.012.043.024.063.035l.015.012.032.016a.082.082 0 00.023.015c.028.016.051.035.074.055l.008.008.035.023.008.008c.043.031.082.07.117.105l1.34 1.34c.035.036.074.075.106.114l.008.015c.007.008.015.02.027.031l.008.012c.015.024.035.047.05.07a.082.082 0 01.016.024l.02.031.007.016c.012.023.024.043.036.062.007.012.011.024.02.036l.01.027.009.015c.007.02.02.04.027.06a.22.22 0 01.016.046l.007.02.004.015.024.059c.008.02.011.043.015.062l.004.016a.409.409 0 01.016.066c.008.028.012.051.016.078a.43.43 0 01.007.07c.004.028.008.055.008.083.004.02.004.043.004.062v.09c0 .02 0 .04-.004.059a.641.641 0 01-.008.09.23.23 0 01-.007.054c-.004.035-.012.067-.016.098a.405.405 0 00-.012.047c-.012.035-.02.066-.027.097l-.012.024-.004.02a.727.727 0 01-.039.097l-.008.016-.007.02c-.016.034-.032.07-.051.105l-.016.023a1.267 1.267 0 01-.058.098l-.02.023c-.027.043-.055.078-.078.11l-.098.105-.008.008c-.656.687-1.644 1.066-2.789 1.066-2.129 0-4.578-1.285-6.898-3.625C1.894 8.406.605 5.934.629 3.793c.012-1.121.39-2.09 1.07-2.734l.008-.008c.027-.028.063-.059.105-.098.032-.023.067-.05.11-.078.004-.008.012-.012.02-.016a.967.967 0 01.101-.062L2.066.78c.036-.02.07-.035.106-.05l.02-.012.011-.004c.035-.016.067-.027.102-.04l.02-.003.023-.012c.03-.008.062-.02.101-.027L2.492.62c.031-.004.063-.012.098-.016a.229.229 0 01.05-.007c.032-.004.063-.008.094-.008.02-.004.04-.004.059-.004h.05m0-.492h-.066c-.023 0-.05.004-.078.004l-.117.011c-.023.004-.047.004-.07.008l-.125.024-.063.015-.129.035c-.02.008-.035.016-.054.02a1.76 1.76 0 00-.13.05c-.015.009-.03.016-.046.024-.047.02-.09.04-.133.063L1.797.37c-.047.027-.094.055-.137.082a3.43 3.43 0 00-.164.125c-.047.04-.094.078-.137.125C-.496 2.47-.664 6.56 3.906 11.093c2.707 2.731 5.258 3.77 7.246 3.77 1.344 0 2.434-.472 3.145-1.222.047-.043.086-.09.125-.137.039-.047.074-.094.11-.14.003-.009.007-.016.015-.024.027-.043.055-.09.082-.137l.023-.035c.024-.043.043-.086.063-.133l.023-.047a1.76 1.76 0 00.051-.129c.004-.02.012-.035.02-.054l.035-.13c.004-.019.008-.042.015-.062l.024-.125c.004-.023.004-.047.008-.07l.011-.117c0-.028.004-.055.004-.078v-.118c0-.027 0-.054-.004-.082-.004-.035-.004-.074-.007-.109-.004-.027-.008-.059-.016-.086-.004-.035-.008-.07-.016-.105a2.912 2.912 0 00-.05-.188c-.008-.031-.02-.062-.032-.098a2.177 2.177 0 01-.035-.09c-.012-.03-.027-.062-.043-.097-.015-.027-.027-.055-.043-.078-.015-.035-.039-.07-.058-.102-.016-.023-.028-.05-.043-.074-.024-.035-.051-.07-.079-.105-.015-.02-.027-.04-.043-.059a1.71 1.71 0 00-.14-.152l-1.34-1.34a1.3 1.3 0 00-.152-.14c-.02-.016-.04-.028-.055-.044-.04-.023-.074-.054-.11-.078-.023-.015-.046-.027-.07-.043-.035-.02-.07-.043-.101-.058-.028-.016-.055-.028-.082-.04-.032-.015-.067-.03-.098-.046l-.09-.036c-.031-.007-.062-.02-.097-.03a.713.713 0 00-.098-.028l-.09-.024c-.035-.003-.07-.011-.105-.015-.028-.004-.055-.012-.086-.012-.036-.008-.075-.008-.11-.012-.027 0-.054-.004-.082-.004h-.117c-.023 0-.05.004-.074.004l-.121.012-.07.012a.704.704 0 00-.126.023l-.062.012c-.043.012-.086.023-.129.039-.016.004-.035.012-.055.02l-.129.046-.046.024a2.104 2.104 0 00-.168.086c-.047.027-.094.055-.137.086-.008.004-.016.008-.02.015a1.24 1.24 0 00-.144.106c-.047.039-.094.082-.137.125l-.906.906a.292.292 0 01-.211.086.283.283 0 01-.207-.086L4.754 6.328a.3.3 0 010-.418l.906-.906c.043-.047.086-.09.125-.14a1.16 1.16 0 00.121-.16 1.615 1.615 0 00.106-.173c.023-.043.047-.09.066-.133l.024-.046c.015-.043.035-.086.046-.13.008-.019.016-.038.02-.054.016-.043.027-.086.039-.129.004-.02.008-.043.016-.062.007-.043.015-.082.02-.125l.01-.07.013-.122c0-.023.004-.05.004-.074v-.117c0-.028-.004-.055-.004-.082-.004-.035-.004-.075-.008-.11-.004-.03-.012-.058-.016-.09-.004-.035-.012-.066-.015-.101l-.024-.094c-.008-.031-.016-.062-.027-.094-.008-.035-.02-.066-.031-.097l-.036-.09-.046-.098c-.012-.027-.024-.054-.04-.082-.015-.035-.039-.066-.058-.101-.016-.024-.027-.047-.043-.07a1.894 1.894 0 00-.078-.11c-.016-.016-.028-.035-.043-.055a1.75 1.75 0 00-.14-.156L4.32.703a1.71 1.71 0 00-.153-.14c-.02-.016-.04-.028-.059-.043C4.074.492 4.04.465 4.004.44 3.98.426 3.954.414 3.93.398 3.898.378 3.863.355 3.828.34 3.805.324 3.778.312 3.75.297 3.715.28 3.684.266 3.648.254L3.562.219C3.527.207 3.497.195 3.466.187A.713.713 0 003.367.16l-.09-.023C3.242.129 3.207.125 3.172.12 3.145.113 3.113.11 3.086.105c-.04-.003-.074-.007-.11-.007C2.95.094 2.923.094 2.896.094h-.051zm0 0"/></svg><svg viewBox="0 0 512 512" id="rating" xmlns="http://www.w3.org/2000/svg"><path d="M341.68 181.48l-54.301-7.89-24.281-49.203a7.999 7.999 0 00-14.348 0l-24.29 49.203-54.3 7.89a7.997 7.997 0 00-4.438 13.641l39.298 38.305-9.277 54.086a8.001 8.001 0 0011.61 8.43l48.57-25.531 48.57 25.53a8.001 8.001 0 0011.608-8.43l-9.277-54.085 39.293-38.305a7.997 7.997 0 00-4.437-13.64zm-49.04 43.43a8.011 8.011 0 00-2.3 7.079l7.25 42.25-37.945-19.946a7.947 7.947 0 00-7.446 0l-37.945 19.945 7.246-42.25a8.011 8.011 0 00-2.3-7.078l-30.7-29.93 42.422-6.164a7.992 7.992 0 006.023-4.375l18.977-38.437 18.969 38.437a7.999 7.999 0 006.027 4.375l42.422 6.165z"/><path d="M413.094 69.394H98.906A50.963 50.963 0 0048 120.301v187.023a50.963 50.963 0 0050.906 50.907h89.492v76.375a8 8 0 0013.657 5.656l82.023-82.031h129.016A50.963 50.963 0 00464 307.324V120.301a50.963 50.963 0 00-50.906-50.907zM448 307.325a34.945 34.945 0 01-34.906 34.907H280.766a8 8 0 00-5.657 2.343l-70.71 70.719V350.23a7.998 7.998 0 00-8-8H98.905A34.945 34.945 0 0164 307.325V120.301a34.945 34.945 0 0134.906-34.907h314.188A34.945 34.945 0 01448 120.301z"/></svg><svg viewBox="0 0 256 256" id="search" xmlns="http://www.w3.org/2000/svg"><path d="M249.193 225.824l-48.341-48.345c-1.768-1.767-4.409-2.081-6.518-.994l-7.027-7.028c31.951-40.824 28.683-100.08-8.363-137.127-19.583-19.58-45.617-30.366-73.308-30.366S51.91 12.75 32.33 32.33C12.75 51.91 1.964 77.944 1.964 105.636S12.75 159.36 32.33 178.94c20.085 20.087 46.692 30.243 73.356 30.243 22.518 0 45.079-7.248 63.771-21.88l7.028 7.027c-1.087 2.11-.773 4.75.994 6.518l48.345 48.344a16.41 16.41 0 0011.684 4.843c4.415 0 8.568-1.72 11.688-4.843s4.84-7.27 4.84-11.685a16.41 16.41 0 00-4.843-11.684zM166.08 166.08c-16.665 16.664-38.553 24.997-60.444 24.997-21.889 0-43.78-8.333-60.444-24.997-33.33-33.327-33.33-87.559 0-120.888 33.33-33.33 87.558-33.327 120.888 0 33.33 33.326 33.33 87.558 0 120.888z" fill="#000" stroke-width="0" stroke-miterlimit="10" style="stroke:none;stroke-width:1;stroke-dasharray:none;stroke-linecap:butt;stroke-linejoin:miter;stroke-miterlimit:10;fill:#000;fill-rule:nonzero;opacity:1"/></svg><svg viewBox="0 0 32 32" id="time" xmlns="http://www.w3.org/2000/svg"><defs><style>.lcls-1{fill:#101820}</style></defs><g data-name="Layer 15" id="lLayer_15"><path class="lcls-1" d="M16 31a15 15 0 1115-15 15 15 0 01-15 15zm0-28a13 13 0 1013 13A13 13 0 0016 3z"/><path class="lcls-1" d="M20.24 21.66l-4.95-4.95A1 1 0 0115 16V8h2v7.59l4.66 4.65z"/></g></svg><svg viewBox="0 0 32 32" id="user" xmlns="http://www.w3.org/2000/svg"><path d="M16 16a7 7 0 10-7-7 7 7 0 007 7zm0-12a5 5 0 11-5 5 5 5 0 015-5zM17 18h-2A11 11 0 004 29a1 1 0 001 1h22a1 1 0 001-1 11 11 0 00-11-11zM6.06 28A9 9 0 0115 20h2a9 9 0 018.94 8z"/></svg><svg viewBox="0 0 900 575" fill-rule="evenodd" clip-rule="evenodd" stroke-linejoin="round" stroke-miterlimit="1.414" id="visa" xmlns="http://www.w3.org/2000/svg"><g fill-rule="nonzero"><path fill="#fff" d="M0 3.292h900V575H0z"/><path fill="#fcb315" d="M14.988 482.105h870.009v78H14.987z"/><path fill="#0d357f" d="M14.988 18.288h870.009v78H14.987zM442.488 182.225l-45.859 214.396h-55.466l45.862-214.396h55.463zm233.35 138.438l29.2-80.513 16.796 80.513h-45.996zm61.917 75.958h51.283L744.23 182.225H696.92c-10.666 0-19.65 6.183-23.629 15.717l-83.229 198.68h58.254L659.88 364.6h71.15l6.725 32.021zm-144.8-69.996c.241-56.579-78.217-59.716-77.696-84.996.17-7.683 7.496-15.866 23.52-17.958 7.942-1.025 29.859-1.85 54.705 9.596l9.716-45.484c-13.35-4.825-30.52-9.475-51.883-9.475-54.833 0-93.408 29.125-93.717 70.867-.35 30.867 27.559 48.075 48.538 58.354 21.63 10.509 28.88 17.25 28.775 26.638-.15 14.383-17.254 20.75-33.17 20.992-27.905.433-44.076-7.542-56.968-13.55l-10.066 47c12.979 5.941 36.9 11.112 61.662 11.379 58.292 0 96.413-28.788 96.584-73.363zm-229.721-144.4l-89.871 214.396h-58.625l-44.23-171.104c-2.679-10.521-5.016-14.388-13.17-18.834-13.338-7.245-35.359-14.02-54.717-18.237l1.308-6.22h94.384c12.02 0 22.837 8 25.587 21.845l23.363 124.07 57.7-145.916h58.27z"/></g></svg></svg>